<?xml version="1.0" encoding="UTF-8" standalone="no"?>
<svg
   width="440.13376"
   height="119.64537"
   id="screenshot-985f4730-bbd2-11ec-aa9f-0fe72c1031a8"
   viewBox="-0.35 -0.1008955 440.13377 119.64537"
   style="-webkit-print-color-adjust:exact"
   fill="none"
   version="1.1"
   xmlns="http://www.w3.org/2000/svg"
   xmlns:svg="http://www.w3.org/2000/svg">
  <defs
     id="defs140" />
  <path
     rx="0"
     ry="0"
     d="M 162.81084,91.84449 H 48.097004 v -71.296864 0 h 51.133087"
     style="opacity:0.552701;fill:none;stroke-miterlimit:4;stroke-dasharray:none;stroke-opacity:1;paint-order:stroke"
     id="path2" />
  <path
     rx="0"
     ry="0"
     d="M 162.81084,91.84449 H 48.097004 v -71.296864 0 h 51.133087"
     style="opacity:0.193445;fill:none;stroke:#d6d6d6;stroke-width:0.7;stroke-miterlimit:4;stroke-dasharray:none;stroke-opacity:1;paint-order:stroke"
     id="path5" />
  <path
     rx="0"
     ry="0"
     d="m 397.98869,20.540107 h 41.44508 V 90.99623 H 273"
     style="opacity:0.552701;fill:none;stroke-miterlimit:4;stroke-dasharray:none;stroke-opacity:1;paint-order:stroke"
     id="path15" />
  <path
     rx="0"
     ry="0"
     d="m 397.98869,20.540107 h 41.44508 V 90.99623 H 273"
     style="opacity:0.193445;fill:none;stroke:#d6d6d6;stroke-width:0.7;stroke-miterlimit:4;stroke-dasharray:none;stroke-opacity:1;paint-order:stroke"
     id="path18" />
  <path
     rx="0"
     ry="0"
     d="m 209.31075,20.547626 h 79.07296"
     style="opacity:0.552701;fill:none;stroke-miterlimit:4;stroke-dasharray:none;stroke-opacity:1;paint-order:stroke"
     id="path24" />
  <path
     rx="0"
     ry="0"
     d="m 209.31075,20.547626 h 79.07296"
     style="opacity:0.193445;fill:none;stroke:#d6d6d6;stroke-width:0.7;stroke-miterlimit:4;stroke-dasharray:none;stroke-opacity:1;paint-order:stroke"
     id="path27" />
  <rect
     rx="0"
     ry="0"
     x="99"
     y="-0.003770204"
     width="110"
     height="41"
     style="display:inline;opacity:0.35;fill:#bd8326;fill-opacity:1;stroke:none"
     id="rect33" />
  <rect
     rx="0"
     ry="0"
     x="288"
     y="-0.003770204"
     width="110"
     height="41"
     style="display:inline;opacity:0.35;fill:#bd8326;fill-opacity:1;stroke:none"
     id="rect42" />
  <rect
     rx="0"
     ry="0"
     x="163"
     y="70.996231"
     width="110"
     height="41"
     style="display:inline;opacity:0.35;fill:#bd8326;fill-opacity:1;stroke:none"
     id="rect51" />
  <path
     rx="0"
     ry="0"
     d="M 86.293471,27.59909 Z"
     style="fill:none;stroke-miterlimit:4;stroke-dasharray:none;stroke-opacity:1;paint-order:stroke"
     id="path60" />
  <path
     rx="0"
     ry="0"
     d="M 86.293471,27.59909 Z"
     style="fill:none;stroke:#d6d6d6;stroke-width:0.185208;stroke-miterlimit:4;stroke-dasharray:none;stroke-opacity:1;paint-order:stroke"
     id="path63" />
  <path
     rx="0"
     ry="0"
     d="m 196.37038,27.59909 h 79.07677"
     style="fill:none;stroke-miterlimit:4;stroke-dasharray:none;stroke-opacity:1;paint-order:stroke"
     id="path69" />
  <path
     rx="0"
     ry="0"
     d="m 196.37038,27.59909 h 79.07677"
     style="fill:none;stroke:#d6d6d6;stroke-width:0.7;stroke-miterlimit:4;stroke-dasharray:none;stroke-opacity:1;paint-order:stroke"
     id="path72" />
  <rect
     rx="0"
     ry="0"
     x="86"
     y="6.9962296"
     width="110"
     height="41"
     style="display:inline;fill:#bd8326;fill-opacity:1;stroke:none"
     id="rect78" />
  <path
     rx="0"
     ry="0"
     d="M 149.8742,98.895955 H 35.160384 v -71.296878 0 l 51.133087,1.3e-5"
     style="display:inline;fill:none;stroke-miterlimit:4;stroke-dasharray:none;stroke-opacity:1;paint-order:stroke"
     id="path87" />
  <path
     rx="0"
     ry="0"
     d="M 149.8742,98.895955 H 35.160384 v -71.296878 0 l 51.133087,1.3e-5"
     style="display:inline;fill:none;stroke:#d6d6d6;stroke-width:0.7;stroke-miterlimit:4;stroke-dasharray:none;stroke-opacity:1;paint-order:stroke"
     id="path90" />
  <path
     rx="0"
     ry="0"
     d="m 385.08254,27.590177 h 41.41459 V 98.795821 H 259.20047"
     style="display:inline;fill:none;stroke-miterlimit:4;stroke-dasharray:none;stroke-opacity:1;paint-order:stroke"
     id="path100" />
  <path
     rx="0"
     ry="0"
     d="m 385.08254,27.590177 h 41.41459 V 98.795821 H 259.20047"
     style="display:inline;fill:none;stroke:#d6d6d6;stroke-width:0.7;stroke-miterlimit:4;stroke-dasharray:none;stroke-opacity:1;paint-order:stroke"
     id="path103" />
  <rect
     rx="0"
     ry="0"
     x="275"
     y="6.9962296"
     width="110"
     height="41"
     style="display:inline;fill:#bd8326;fill-opacity:1;stroke:none"
     id="rect109" />
  <rect
     rx="0"
     ry="0"
     x="150"
     y="77.996231"
     width="110"
     height="41"
     style="display:inline;fill:#bd8326;fill-opacity:1;stroke:none"
     id="rect118" />
  <path
     rx="0"
     ry="0"
     d="M 0.16038392,27.599077 H 35.160384"
     style="fill:none;stroke-linejoin:miter;stroke-miterlimit:4;stroke-dasharray:none;stroke-opacity:1"
     id="path127" />
  <path
     rx="0"
     ry="0"
     d="M 0.16038392,27.599077 H 35.160384"
     style="fill:none;stroke:#d6d6d6;stroke-width:0.7;stroke-linejoin:miter;stroke-miterlimit:4;stroke-dasharray:none;stroke-opacity:1"
     id="path130" />
</svg>
